# xmcd
#
# Track frame offsets:
#	182
#	15732
#	32727
#	54767
#	71422
#	89015
#	104897
#	119582
#	138480
#	153257
#	171680
#	186095
#	205432
#	225230
#	239165
#	257672
#	276527
#	294005
#
# Disc length: 4096 seconds
#
# Revision: 4
# Processed by: cddbd v1.5.1PL0 Copyright (c) Steve Scherf et al.
# Submitted via: audiograbber 1.83.01
#
DISCID=110ffe12
DTITLE=Various Artist - Various~Sounds Of The Seventies CD 1
DYEAR=1991
DGENRE=Pop
TTITLE0=Real Thing - You To Me Are Everything
TTITLE1=T. Rex - Telegram Sam
TTITLE2=Shirley and Company - Shame Shame Shame
TTITLE3=Jimmy Helms - Gonna Make You An Offer You Can't Refuse
TTITLE4=Trammps - Hold Back The Night
TTITLE5=Bonnie Tyler - It's A Heartache
TTITLE6=Andrea True Connection - More More More
TTITLE7=Simon May - The Summer Of My Life
TTITLE8=Status Quo - In My Chair
TTITLE9=Melanie - What Have They Done To My Song Ma
TTITLE10=Mungo Jerry - Lady Rose
TTITLE11=Moments - Jack In The Box
TTITLE12=Sylvia - Pillow Talk
TTITLE13=10CC - The Dean And I
TTITLE14=Jonathan Richman and Modern Lovers - Roadrunner
TTITLE15=T. Rex - Jeepster
TTITLE16=Gladys Knight and Pips - So Sad The Song
TTITLE17=Sweet Sensation - Purely By Coincidence
EXTD=Submitted By Peter Hall
EXTT0=t
EXTT1=
EXTT2=
EXTT3=
EXTT4=
EXTT5=
EXTT6=
EXTT7=
EXTT8=
EXTT9=
EXTT10=
EXTT11=
EXTT12=
EXTT13=
EXTT14=
EXTT15=
EXTT16=
EXTT17=
PLAYORDER=
